<svg xmlns="http://www.w3.org/2000/svg" width="168" height="168" fill="none"><path fill="#EDFFF6" fill-rule="evenodd" d="m168 84-.025 2.24-.089 2.213-.152 2.214-.202 2.188-.266 2.189-.316 2.176-.367 2.176-.43 2.15-.493 2.138-.544 2.113-.595 2.113-.645 2.087-.709 2.075-.746 2.049-.81 2.024-.872 2.012-.911 1.973-.962 1.974-1.024 1.935-1.063 1.91-1.113 1.873-1.177 1.859-1.214 1.822-1.265 1.809-1.316 1.758-1.366 1.734-1.404 1.695-1.468 1.67-1.505 1.632-1.556 1.594-1.594 1.556-1.632 1.505-1.67 1.468-1.695 1.404-1.734 1.366-1.758 1.316-1.809 1.265-1.822 1.214-1.859 1.177-1.873 1.113-1.91 1.063-1.935 1.024-1.974.962-1.973.911-2.012.872-2.024.81-2.049.746-2.075.709-2.087.645-2.113.595-2.113.544-2.138.493-2.15.43-2.176.367-2.176.316-2.189.266-2.188.202-2.214.152-2.214.089L84 168l-2.24-.025-2.213-.089-2.214-.152-2.188-.202-2.189-.266-2.176-.316-2.176-.367-2.15-.43-2.138-.493-2.113-.544-2.113-.595-2.087-.645-2.075-.709-2.05-.746-2.023-.81-2.012-.872-1.973-.911-1.974-.962-1.935-1.024-1.91-1.063-1.873-1.113-1.86-1.177-1.821-1.214-1.809-1.265-1.759-1.316-1.733-1.366-1.695-1.404-1.67-1.468-1.632-1.505-1.594-1.556-1.556-1.594-1.505-1.632-1.468-1.67-1.404-1.695-1.366-1.734-1.316-1.758-1.265-1.809-1.214-1.822-1.177-1.859-1.113-1.873-1.063-1.91-1.024-1.935-.962-1.974-.91-1.973-.873-2.012-.81-2.024-.746-2.049-.709-2.075-.645-2.087-.595-2.113-.544-2.113-.493-2.138-.43-2.15-.367-2.176-.316-2.176-.266-2.189-.202-2.188-.152-2.214-.089-2.214L0 84l.025-2.24.089-2.213.152-2.214.202-2.188.266-2.189.316-2.176.367-2.176.43-2.15.493-2.138.544-2.113.595-2.113.645-2.087.709-2.075.746-2.05.81-2.023.872-2.012.911-1.973.962-1.974 1.024-1.935 1.063-1.91 1.113-1.873 1.177-1.86 1.214-1.821 1.265-1.809 1.316-1.759 1.366-1.733 1.404-1.695 1.468-1.67 1.505-1.632 1.556-1.594L26.2 23.05l1.632-1.505 1.67-1.468 1.695-1.404 1.733-1.366 1.759-1.316 1.809-1.265 1.822-1.214 1.86-1.177 1.872-1.113 1.91-1.063 1.935-1.024 1.974-.962 1.973-.91 2.012-.873 2.024-.81 2.05-.746 2.074-.709 2.087-.645 2.113-.595 2.113-.544 2.138-.493 2.15-.43 2.176-.367 2.176-.316 2.189-.266 2.188-.202 2.214-.152 2.214-.089L84 0l2.24.025 2.213.089 2.214.152 2.188.202 2.189.266 2.176.316 2.176.367 2.15.43 2.138.493 2.113.544 2.113.595 2.087.645 2.075.709 2.049.746 2.024.81 2.012.872 1.973.911 1.974.962 1.935 1.024 1.91 1.063 1.873 1.113 1.859 1.177 1.822 1.214 1.809 1.265 1.758 1.316 1.734 1.366 1.695 1.404 1.67 1.468 1.632 1.505 1.594 1.556 1.556 1.594 1.505 1.632 1.468 1.67 1.404 1.695 1.366 1.733 1.316 1.759 1.265 1.809 1.214 1.822 1.177 1.86 1.113 1.872 1.063 1.91 1.024 1.935.962 1.974.911 1.973.872 2.012.81 2.024.746 2.05.709 2.074.645 2.087.595 2.113.544 2.113.493 2.138.43 2.15.367 2.176.316 2.176.266 2.189.202 2.188.152 2.214.089 2.214z" clip-rule="evenodd"/><path fill="url(#a)" fill-rule="evenodd" d="M147.856 138.097c-15.407 18.004-38.296 29.415-63.85 29.415s-48.444-11.411-63.852-29.415z" clip-rule="evenodd"/><path fill="#AEEFCF" fill-rule="evenodd" d="m43.718 58.644.177.354.101.355.05.354-.012.354-.076.342-.126.316-.165.278-.227.253-.279.203-.316.139-.329.076h-.342l-.328-.05-.33-.102-.316-.165-.278-.227-.253-.266-.228-.329-.177-.354-.101-.354-.038-.354.013-.355.063-.341.126-.317.178-.278.215-.253.29-.202.317-.14.316-.075h.342l.329.05.328.101.317.165.278.228.266.265zm64.809-15.99.177.354.102.355.038.367-.013.354-.063.329-.127.316-.177.29-.215.241-.291.203-.316.139-.317.076-.341.012-.329-.05-.329-.114-.316-.165-.278-.215-.266-.265-.215-.33-.177-.353-.102-.355-.05-.367.013-.354.075-.329.114-.316.177-.29.228-.241.278-.203.317-.139.329-.076.341-.012.329.05.329.114.316.164.279.216.253.265zm26.3 35.004.48.076.431.228.278.354.114.418-.013.215-.063.215-.266.367-.405.265-.48.101-.481-.076-.418-.227-.291-.342-.113-.43.088-.43.253-.367.405-.253z" clip-rule="evenodd"/><path fill="url(#b)" fill-rule="evenodd" d="m139.988 55.684 1.544 5.124 5.11 1.53-5.11 1.544-1.544 5.123-1.543-5.123-5.111-1.544 5.111-1.53z" clip-rule="evenodd"/><path fill="url(#c)" fill-rule="evenodd" d="m131.612 91.234.924 3.068 3.06.916-3.06.925-.924 3.068-.925-3.068-3.06-.924 3.06-.917z" clip-rule="evenodd"/><path fill="url(#d)" fill-rule="evenodd" d="m20.658 69.005.936 3.112 3.112.936-3.112.937-.936 3.112-.937-3.112-3.112-.937 3.112-.936z" clip-rule="evenodd"/><path fill="url(#e)" fill-rule="evenodd" d="m53.902 73.785.936 3.112 3.112.936-3.112.936-.936 3.112-.936-3.112-3.113-.936 3.113-.936z" clip-rule="evenodd"/><path fill="url(#f)" fill-opacity=".552" fill-rule="evenodd" d="m126.074 116.458 1.822.037 1.834.114 1.847.177 1.847.241 1.822.316 1.796.38 1.771.43 1.721.493 1.657.544 1.632.607 1.543.645 1.43.684 2.049 1.138 1.759 1.202.822.658.734.658.632.67.569.671.405.582.354.581.291.582.228.582.165.595h-53.095l.152-.696.202-.683.266-.671.329-.67.392-.67.544-.772.62-.759.708-.747.81-.733.847-.671.911-.645 1-.633 1.088-.594 1.1-.531 1.164-.506 1.227-.481 1.303-.43 1.316-.38 1.354-.329 1.416-.303 1.48-.241 1.468-.189 1.518-.14 1.556-.088z" clip-rule="evenodd"/><g filter="url(#g)"><path fill="#80E5B3" fill-rule="evenodd" d="m126.805 132.233.051.139v.291l-.139.241-.127.101-1.72.974-.14.013-.278-.076-.215-.203-.063-.152v-.278l.152-.253.113-.101 1.734-.974.139-.013.278.076z" clip-rule="evenodd"/></g><path fill="#92E8BE" fill-rule="evenodd" d="m123.022 128.894.519.012.202.051.177.088.253.19.266.43.076.418-.013 3.517-.152.392-.177.24-.253.19-.379.139h-.759l-.43-.177-.329-.342-.177-.43-.026-.227.026-3.53.177-.43.152-.19.392-.253z" clip-rule="evenodd"/><path fill="url(#h)" fill-rule="evenodd" d="m123.984 120.924 3.694 8.033.076.24v.228l-.051.228-.101.202-.152.164-.215.14-.367.076h-7.388l-.24-.026-.215-.101-.177-.139-.139-.177-.102-.215-.025-.241.076-.379 3.694-8.033.139-.203.165-.152.202-.113.228-.051.227.013.228.063.19.114z" clip-rule="evenodd"/><g filter="url(#i)"><path fill="#80E5B3" fill-rule="evenodd" d="m45.62 126.993.05.139v.291l-.139.24-.127.101-1.72.974-.14.013-.277-.076-.216-.202-.063-.152v-.278l.152-.253.114-.102 1.733-.974.14-.012.277.076z" clip-rule="evenodd"/></g><path fill="#92E8BE" fill-rule="evenodd" d="m41.833 123.653.518.012.203.051.177.088.253.19.265.43.076.418-.012 3.517-.152.392-.177.24-.253.19-.38.139h-.759l-.43-.177-.329-.342-.177-.43-.025-.227.025-3.53.177-.43.152-.19.392-.253z" clip-rule="evenodd"/><path fill="url(#j)" fill-rule="evenodd" d="m42.794 115.683 3.694 8.033.076.24v.228l-.05.228-.102.202-.151.165-.215.139-.367.076H38.29l-.24-.026-.216-.101-.177-.139-.139-.177-.101-.215-.025-.241.075-.379 3.694-8.033.14-.203.164-.151.203-.114.227-.051.228.013.228.063.19.114z" clip-rule="evenodd"/><g filter="url(#k)"><path fill="#80E5B3" fill-rule="evenodd" d="m141.069 131.046.027.076v.158l-.075.131-.069.055-.935.529-.076.007-.151-.041-.117-.11-.034-.083v-.151l.082-.137.062-.055.942-.53.076-.007.151.041z" clip-rule="evenodd"/></g><path fill="#92E8BE" fill-rule="evenodd" d="m139.015 129.231.282.007.11.028.096.048.137.103.145.234.041.227-.007 1.911-.082.213-.097.131-.137.103-.206.076h-.413l-.234-.096-.179-.186-.096-.234-.014-.124.014-1.918.096-.234.083-.103.213-.138z" clip-rule="evenodd"/><path fill="url(#l)" fill-rule="evenodd" d="m139.536 124.899 2.008 4.366.041.131v.124l-.027.124-.055.11-.083.089-.117.076-.199.041h-4.016l-.131-.014-.117-.055-.096-.075-.076-.097-.055-.117-.013-.13.041-.207 2.008-4.366.075-.11.09-.083.11-.062.124-.027.123.007.124.034.103.062z" clip-rule="evenodd"/><path fill="url(#m)" fill-rule="evenodd" d="M54.178 88.765h63.443l-11.955 32.006H63.982l-1.948-.645-1.29-1.619-9.804-24.998-.215-1.404.328-1.29.747-1.075 1.19-.76z" clip-rule="evenodd"/><path stroke="#92E8BE" stroke-linecap="round" stroke-width="3.484" d="m105.994 119.039 17.66-44.164h9.374m-68.831 42.873h37.168l1.935.329 1.62.645 1.391 1.075 1.075 1.506.658 1.619.317 1.834-.317 4.2-.658 1.62-1.075 1.391-1.391 1.189-1.62.646-1.935.215H64.197"/><path fill="#6CC79A" fill-rule="evenodd" d="m77.012 137.572-.329 1.29-.746 1.189-1.075.645-1.303.329-1.392-.329-1.075-.645-.76-1.189-.328-1.29.329-1.405.759-1.075 1.075-.746 1.392-.329 1.303.329 1.075.746.746 1.075zm22.088 0-.329 1.29-.746 1.189-1.088.645-1.392.329-1.29-.329-1.19-.645-.644-1.189-.33-1.29.33-1.405.645-1.075 1.189-.746 1.29-.329 1.392.329 1.088.746.746 1.075z" clip-rule="evenodd"/><path fill="#fff" stroke="#92E8BE" stroke-width=".127" d="m84.716 95.278 1.557-.625 1.572.626.743 1.698v16.134l-.21.949-1.157 1.145h-1.783l-1.255-1.143-.098-.947v-16.14zM68.34 97.213l1.365-1.057 1.669.221 1.051 1.361 4.194 15.713-.21 1.682-1.35 1.044-1.783-.209-1.051-1.373-4.193-15.699zm30.603.525 1.052-1.36 1.782-.222 1.35 1.056.211 1.682-4.194 15.701-1.052 1.373-1.67.209-1.462-1.045-.21-1.681z"/><path stroke="#92E8BE" stroke-dasharray="1.16 1.16" stroke-width="1.161" d="m50.078 41.908 5.174 8.185 4.63 6.249 4.1 4.63 3.769 3.239 3.34 2.15 3.01 1.29 2.796.43 2.695-.1 2.593-.76 2.151-1.176 1.19-1.19.53-1.074-.1-2.48-.76-1.19-1.62-1.403-2.25-1.177-2.48-.645h-2.594l-1.606.43-1.519.746-1.391 1.303-.974 1.607-.76 2.163-.43 3.011.545 1.936.974 1.62 1.505 1.403 2.796 1.72 3.669 1.405 15.193 3.555 2.796.961 3.77 3.125 2.15 3.023"/><defs><linearGradient id="a" x1="-1.312" x2="150.987" y1="156.673" y2="182.099" gradientUnits="userSpaceOnUse"><stop stop-color="#5FDFA0"/><stop offset="1" stop-color="#EEF8F3"/></linearGradient><linearGradient id="b" x1="135.567" x2="140.837" y1="56.653" y2="65.848" gradientUnits="userSpaceOnUse"><stop stop-color="#81E5B4"/><stop offset="1" stop-color="#AAEFCD"/></linearGradient><linearGradient id="c" x1="128.964" x2="132.12" y1="91.814" y2="97.32" gradientUnits="userSpaceOnUse"><stop stop-color="#81E5B4"/><stop offset="1" stop-color="#AAEFCD"/></linearGradient><linearGradient id="d" x1="17.968" x2="21.169" y1="69.594" y2="75.185" gradientUnits="userSpaceOnUse"><stop stop-color="#7FE4B3"/><stop offset="1" stop-color="#B6F1D4"/></linearGradient><linearGradient id="e" x1="51.212" x2="54.413" y1="74.374" y2="79.965" gradientUnits="userSpaceOnUse"><stop stop-color="#7FE4B3"/><stop offset="1" stop-color="#B6F1D4"/></linearGradient><linearGradient id="f" x1="124.692" x2="124.692" y1="117.201" y2="121.085" gradientUnits="userSpaceOnUse"><stop stop-color="#B2F0D2"/><stop offset="1" stop-color="#ECFFF6"/></linearGradient><linearGradient id="h" x1="125.546" x2="121.417" y1="128.625" y2="127" gradientUnits="userSpaceOnUse"><stop stop-color="#7DE4B1"/><stop offset="1" stop-color="#B5F1D4"/></linearGradient><linearGradient id="j" x1="44.357" x2="40.228" y1="123.384" y2="121.759" gradientUnits="userSpaceOnUse"><stop stop-color="#7DE4B1"/><stop offset="1" stop-color="#B5F1D4"/></linearGradient><linearGradient id="l" x1="140.385" x2="138.141" y1="129.085" y2="128.202" gradientUnits="userSpaceOnUse"><stop stop-color="#7DE4B1"/><stop offset="1" stop-color="#B5F1D4"/></linearGradient><linearGradient id="m" x1="51.922" x2="128.847" y1="101.674" y2="119.333" gradientUnits="userSpaceOnUse"><stop stop-color="#7EE4B2"/><stop offset="1" stop-color="#F5FFFA"/></linearGradient><filter id="g" width="3.694" height="3.061" x="123.668" y="131.436" color-interpolation-filters="sRGB" filterUnits="userSpaceOnUse"><feFlood flood-opacity="0" result="BackgroundImageFix"/><feBlend in="SourceGraphic" in2="BackgroundImageFix" result="shape"/><feGaussianBlur result="effect1_foregroundBlur_6741_248" stdDeviation=".253"/></filter><filter id="i" width="3.694" height="3.061" x="42.482" y="126.196" color-interpolation-filters="sRGB" filterUnits="userSpaceOnUse"><feFlood flood-opacity="0" result="BackgroundImageFix"/><feBlend in="SourceGraphic" in2="BackgroundImageFix" result="shape"/><feGaussianBlur result="effect1_foregroundBlur_6741_248" stdDeviation=".253"/></filter><filter id="k" width="2.007" height="1.664" x="139.364" y="130.613" color-interpolation-filters="sRGB" filterUnits="userSpaceOnUse"><feFlood flood-opacity="0" result="BackgroundImageFix"/><feBlend in="SourceGraphic" in2="BackgroundImageFix" result="shape"/><feGaussianBlur result="effect1_foregroundBlur_6741_248" stdDeviation=".138"/></filter></defs></svg>